<?xml version="1.0" standalone="no"?>
<!DOCTYPE svg PUBLIC "-//W3C//DTD SVG 20010904//EN"
 "http://www.w3.org/TR/2001/REC-SVG-20010904/DTD/svg10.dtd">
<svg version="1.0" xmlns="http://www.w3.org/2000/svg"
 width="1016.000000pt" height="1016.000000pt" viewBox="0 0 1016.000000 1016.000000"
 preserveAspectRatio="xMidYMid meet">

<g transform="translate(0.000000,1016.000000) scale(0.100000,-0.100000)"
fill="#FFFFFF" stroke="none">
<path d="M4512 10129 c-29 -16 -110 -85 -180 -153 -70 -68 -143 -131 -162
-141 -48 -25 -94 -16 -269 55 -158 64 -249 88 -295 76 -46 -11 -120 -90 -217
-233 -51 -74 -108 -148 -126 -164 -44 -38 -96 -38 -275 -3 -164 33 -282 37
-321 11 -42 -27 -93 -114 -158 -270 -61 -144 -93 -198 -132 -219 -14 -7 -102
-14 -237 -18 -290 -9 -313 -19 -358 -155 -11 -33 -32 -118 -47 -189 -33 -158
-52 -213 -85 -237 -25 -19 -87 -36 -300 -84 -155 -35 -198 -57 -229 -120 -23
-45 -25 -62 -31 -264 -4 -137 -11 -224 -18 -238 -21 -39 -73 -70 -221 -133
-160 -68 -241 -115 -268 -157 -26 -39 -22 -157 11 -321 35 -179 35 -231 -3
-275 -16 -18 -90 -75 -164 -126 -143 -97 -222 -171 -233 -217 -12 -46 12 -137
76 -295 71 -175 80 -221 55 -269 -10 -19 -73 -92 -141 -162 -128 -133 -184
-212 -184 -263 0 -43 54 -149 148 -293 44 -67 86 -138 92 -157 16 -50 3 -82
-92 -227 -94 -144 -148 -250 -148 -293 0 -51 56 -130 184 -263 68 -70 131
-143 141 -162 25 -48 16 -94 -55 -269 -64 -158 -88 -249 -76 -295 11 -46 90
-120 233 -217 74 -51 148 -108 164 -126 38 -44 38 -96 3 -275 -33 -164 -37
-282 -11 -321 27 -42 108 -89 268 -157 148 -63 200 -94 221 -133 7 -14 14
-101 18 -238 6 -202 8 -219 31 -264 31 -63 74 -85 229 -120 213 -48 275 -65
300 -84 33 -24 52 -79 85 -237 15 -71 36 -156 47 -189 45 -136 68 -146 358
-155 135 -4 223 -11 237 -18 39 -21 71 -75 132 -219 65 -156 116 -243 158
-270 39 -26 157 -22 321 11 179 35 231 35 275 -3 18 -16 75 -90 126 -164 97
-143 171 -222 217 -233 46 -12 137 12 295 76 175 71 221 80 269 55 19 -10 92
-73 162 -141 133 -128 212 -184 263 -184 43 0 150 54 285 144 63 42 134 83
158 92 39 15 45 15 85 0 23 -9 94 -50 157 -92 135 -90 242 -144 285 -144 51 0
130 56 263 184 70 68 143 131 162 141 48 25 94 16 269 -55 158 -64 249 -88
295 -76 46 11 120 90 217 233 51 74 108 148 126 164 44 38 92 38 273 3 167
-33 284 -37 323 -11 42 27 93 114 158 270 61 144 93 198 132 219 14 7 102 14
237 18 290 9 313 19 358 155 11 33 32 118 47 189 33 158 52 213 85 237 25 19
87 36 300 84 155 35 198 57 229 120 23 45 25 62 31 264 4 137 11 224 18 238
21 39 75 71 219 132 156 65 243 116 270 158 26 39 22 157 -11 321 -35 179 -35
231 3 275 16 18 90 75 164 126 143 97 222 171 233 217 12 46 -12 137 -76 295
-71 175 -80 221 -55 269 10 19 73 92 141 162 128 133 184 212 184 263 0 43
-54 149 -148 293 -95 145 -108 177 -92 227 6 19 48 90 92 157 94 144 148 250
148 293 0 51 -56 130 -184 263 -68 70 -131 143 -141 162 -25 48 -16 94 55 269
64 158 88 249 76 295 -11 46 -90 120 -233 217 -74 51 -148 108 -164 126 -38
44 -38 96 -3 275 33 164 37 282 11 321 -27 42 -114 93 -270 158 -144 61 -198
93 -219 132 -7 14 -14 101 -18 238 -6 202 -8 219 -31 264 -31 63 -74 85 -229
120 -213 48 -275 65 -300 84 -33 24 -52 79 -85 237 -15 71 -36 156 -47 189
-45 136 -68 146 -358 155 -135 4 -223 11 -237 18 -39 21 -71 75 -132 219 -65
156 -116 243 -158 270 -39 26 -157 22 -321 -11 -179 -35 -231 -35 -275 3 -18
16 -75 90 -126 164 -97 143 -171 222 -217 233 -46 12 -137 -12 -295 -76 -175
-71 -221 -80 -269 -55 -19 10 -92 73 -162 141 -133 128 -212 184 -263 184 -43
0 -149 -54 -293 -148 -67 -44 -138 -86 -157 -92 -50 -16 -82 -3 -227 92 -144
94 -250 148 -293 148 -16 0 -54 -14 -83 -31z m913 -579 c603 -51 1124 -194
1640 -448 452 -223 809 -474 1168 -821 281 -272 573 -648 773 -996 305 -532
493 -1117 570 -1770 25 -209 25 -726 1 -943 -121 -1068 -569 -1998 -1324
-2744 -363 -360 -721 -614 -1183 -842 -859 -424 -1803 -559 -2775 -396 -677
114 -1380 421 -1945 851 -319 242 -625 548 -869 868 -777 1020 -1081 2321
-840 3591 70 370 195 745 363 1095 319 661 789 1235 1369 1667 242 181 436
298 722 440 509 251 1037 396 1625 447 139 12 566 12 705 1z"/>
<path d="M4750 9199 c-1077 -86 -2085 -592 -2800 -1406 -862 -982 -1211 -2289
-955 -3578 216 -1084 870 -2048 1807 -2662 1068 -700 2407 -869 3618 -458
1403 477 2458 1677 2745 3120 157 787 92 1563 -192 2320 -54 144 -206 461
-288 600 -446 760 -1119 1365 -1910 1716 -441 195 -900 311 -1384 349 -155 12
-486 11 -641 -1z m780 -73 c651 -75 1272 -299 1800 -649 257 -170 412 -297
643 -525 954 -942 1384 -2295 1152 -3620 -180 -1024 -747 -1948 -1580 -2572
-627 -470 -1353 -746 -2130 -811 -184 -15 -679 -6 -835 16 -481 66 -870 180
-1275 374 -483 232 -932 569 -1284 966 -394 444 -675 934 -854 1490 -132 411
-190 791 -190 1245 0 378 35 673 123 1017 323 1267 1247 2318 2460 2801 404
160 797 249 1275 286 108 8 567 -4 695 -18z"/>
<path d="M4593 8743 c-35 -2 -63 -7 -63 -11 0 -54 44 -611 51 -651 8 -36 20
-64 39 -82 45 -46 89 -51 281 -38 l171 12 -6 30 c-3 16 -6 54 -6 85 l0 55
-132 -7 c-73 -4 -140 -9 -149 -12 -8 -2 -23 2 -32 8 -14 11 -20 58 -37 296
-11 155 -20 291 -20 302 0 13 -6 19 -17 18 -10 -1 -46 -3 -80 -5z"/>
<path d="M5258 8734 c-57 -31 -69 -76 -90 -344 -10 -135 -17 -266 -14 -292 7
-65 31 -107 72 -124 41 -17 274 -38 327 -29 47 9 92 46 107 89 15 45 49 537
40 584 -15 82 -55 109 -178 122 -129 14 -232 12 -264 -6z m271 -179 c13 -12
13 -42 2 -212 -7 -109 -18 -204 -23 -210 -7 -8 -37 -13 -84 -13 -99 0 -117 16
-109 98 3 31 10 120 15 196 6 77 16 146 22 154 15 18 156 7 177 -13z"/>
<path d="M5916 8301 c15 -268 26 -397 35 -417 8 -16 31 -37 51 -47 32 -16 43
-17 73 -7 19 6 46 26 59 43 54 72 397 650 389 657 -4 4 -39 15 -78 24 -60 15
-71 15 -80 3 -5 -8 -71 -121 -145 -250 -74 -130 -138 -236 -141 -237 -3 0 -9
129 -13 287 -4 158 -8 289 -10 291 -4 3 -145 41 -156 42 -3 0 4 -175 16 -389z"/>
<path d="M4039 8626 c-178 -45 -210 -71 -211 -168 0 -68 103 -486 137 -553 28
-56 67 -85 115 -85 39 0 264 56 301 75 37 20 67 60 75 101 8 41 -117 552 -147
600 -22 36 -74 64 -116 63 -15 -1 -85 -15 -154 -33z m160 -198 c27 -84 90
-360 85 -373 -4 -8 -25 -20 -48 -26 -22 -5 -56 -14 -75 -19 -45 -12 -68 1 -80
48 -44 165 -81 325 -81 346 0 30 19 41 97 60 68 16 87 9 102 -36z"/>
<path d="M3507 8454 c-58 -29 -67 -38 -62 -57 7 -32 95 -541 95 -550 0 -5 -88
91 -196 212 l-196 220 -71 -35 c-40 -20 -73 -38 -75 -39 -6 -6 497 -539 536
-568 30 -24 44 -28 76 -24 48 7 85 42 92 88 6 42 -108 782 -121 785 -6 2 -40
-13 -78 -32z"/>
<path d="M6717 8375 c-32 -22 -54 -60 -162 -277 -181 -362 -180 -363 85 -495
91 -45 168 -82 171 -82 8 -1 73 148 68 153 -2 2 -64 34 -136 70 -103 51 -133
71 -133 86 0 24 41 110 52 110 5 0 71 -32 148 -70 l140 -70 35 70 c19 38 35
74 35 80 0 5 -66 41 -146 80 l-146 69 29 53 c18 35 35 54 50 56 11 2 79 -26
150 -62 l129 -64 38 75 c20 41 35 77 33 79 -2 2 -77 40 -167 84 -183 90 -212
96 -273 55z"/>
<path d="M4985 7627 c-61 -20 -85 -36 -145 -93 -54 -52 -55 -52 -100 -44 -98
18 -229 -27 -303 -104 -32 -34 -51 -46 -73 -46 -74 0 -179 -56 -214 -112 -32
-52 -23 -55 20 -6 40 47 104 80 174 94 38 7 39 6 31 -17 -4 -13 -9 -53 -12
-89 -4 -56 -2 -70 19 -100 46 -69 144 -88 197 -39 63 59 16 185 -92 240 -44
23 -41 37 23 92 46 39 113 62 181 61 77 -1 82 -6 59 -56 -38 -83 -17 -201 42
-242 32 -23 100 -20 131 4 59 47 40 168 -39 246 -24 25 -44 48 -44 52 0 17 98
102 140 121 97 44 205 19 293 -67 26 -25 47 -51 47 -57 0 -6 -13 -21 -30 -33
-50 -38 -84 -108 -85 -175 0 -52 3 -61 28 -83 33 -29 100 -33 135 -8 59 41 80
159 42 242 -23 50 -18 55 59 56 68 1 135 -22 181 -61 64 -55 67 -69 23 -92
-108 -55 -155 -181 -92 -240 53 -49 151 -30 197 39 21 30 23 44 19 100 -3 36
-8 76 -12 89 -8 23 -7 24 31 17 70 -14 134 -47 174 -94 43 -49 52 -46 20 6
-35 56 -140 112 -214 112 -22 0 -41 12 -73 46 -74 77 -205 122 -303 104 -45
-8 -45 -8 -102 46 -32 30 -79 64 -105 76 -59 26 -172 33 -228 15z m-97 -241
c38 -44 57 -102 48 -150 -13 -67 -94 -78 -130 -17 -41 70 -15 237 33 212 10
-6 32 -26 49 -45z m483 -19 c13 -47 3 -115 -22 -156 -15 -25 -25 -31 -52 -31
-45 0 -66 18 -74 63 -8 52 19 118 69 163 39 35 42 36 55 18 7 -10 18 -36 24
-57z m-853 -94 c92 -69 95 -182 6 -199 -26 -5 -38 0 -65 24 -30 26 -33 36 -37
93 -5 83 9 123 41 114 12 -4 37 -18 55 -32z m1213 10 c6 -16 9 -57 7 -92 -4
-57 -7 -67 -37 -93 -27 -24 -39 -29 -65 -24 -103 20 -79 159 39 220 40 21 44
20 56 -11z"/>
<path d="M1853 6753 c19 -70 1165 -3080 1189 -3125 64 -121 175 -217 306 -266
89 -33 274 -42 375 -18 156 37 296 149 369 296 30 60 1178 3049 1196 3113 4
16 -20 17 -434 15 l-439 -3 -425 -1202 c-234 -662 -428 -1203 -431 -1203 -3 0
-189 542 -415 1205 l-409 1205 -444 0 c-417 0 -443 -1 -438 -17z"/>
<path d="M5480 5070 l0 -1700 415 0 415 0 0 1700 0 1700 -415 0 -415 0 0
-1700z"/>
<path d="M7280 6688 c-29 -46 -220 -351 -425 -678 -205 -327 -397 -631 -427
-676 -69 -100 -100 -181 -100 -254 1 -94 88 -249 575 -1010 l443 -695 481 -3
481 -2 -534 861 c-294 473 -534 863 -534 866 0 3 232 377 515 833 283 455 515
830 515 834 0 3 -211 6 -469 6 l-469 0 -52 -82z"/>
<path d="M4440 3052 c-19 -9 -45 -33 -58 -52 -21 -30 -23 -44 -19 -100 3 -36
8 -75 12 -88 7 -22 6 -23 -31 -17 -89 16 -169 68 -205 134 -14 26 -18 29 -14
11 20 -80 117 -153 220 -166 42 -6 57 -14 95 -52 25 -25 70 -57 100 -71 48
-23 68 -26 154 -26 l100 0 42 -45 c78 -83 197 -124 300 -102 78 16 138 49 188
102 l42 45 100 0 c86 0 106 3 154 26 30 14 75 46 100 71 38 38 53 46 95 52
103 13 200 86 220 166 4 18 0 15 -14 -11 -36 -66 -116 -118 -205 -134 -37 -6
-38 -5 -31 17 14 47 17 138 5 168 -50 122 -241 112 -240 -12 1 -61 77 -159
135 -174 33 -8 32 -17 -10 -63 -47 -52 -120 -82 -200 -83 -35 0 -68 3 -74 6
-6 4 -3 22 9 49 37 80 21 184 -35 237 -34 32 -107 31 -141 -1 -55 -52 -36
-165 41 -243 25 -24 45 -49 45 -54 0 -17 -100 -103 -143 -122 -55 -25 -139
-25 -194 0 -43 19 -143 105 -143 122 0 5 20 30 45 54 77 78 96 191 41 243 -34
32 -107 33 -141 1 -56 -53 -72 -157 -35 -237 12 -27 15 -45 9 -49 -6 -3 -39
-6 -74 -6 -80 1 -153 31 -200 83 -42 46 -43 55 -10 63 58 15 134 113 135 174
0 38 -27 79 -61 91 -44 15 -68 14 -109 -7z m125 -37 c54 -53 15 -149 -79 -197
-26 -13 -42 -16 -49 -9 -13 13 -21 101 -13 144 15 79 91 113 141 62z m1140 -1
c29 -31 39 -77 33 -145 -7 -67 -17 -75 -64 -51 -94 48 -133 144 -79 197 33 34
78 33 110 -1z m-785 -100 c10 -10 15 -34 15 -68 0 -60 -31 -118 -84 -155 l-30
-22 -17 33 c-23 44 -23 142 0 186 26 51 78 62 116 26z m394 16 c14 -5 33 -24
42 -42 23 -44 23 -142 0 -186 l-17 -33 -30 22 c-66 47 -103 141 -80 202 9 22
24 35 58 46 1 1 13 -3 27 -9z"/>
<path d="M6934 2719 c-183 -118 -211 -142 -223 -185 -16 -58 -2 -101 69 -209
74 -112 105 -135 183 -135 37 0 58 9 132 57 98 63 105 63 142 -2 16 -30 19
-43 12 -58 -6 -10 -63 -52 -127 -94 -64 -41 -121 -79 -125 -83 -5 -4 12 -39
38 -78 l47 -70 146 95 c161 104 187 125 208 165 27 52 18 98 -37 189 -69 114
-95 146 -131 165 -53 27 -111 15 -204 -44 -44 -29 -88 -52 -97 -52 -19 0 -67
66 -67 92 0 20 8 26 157 122 l111 72 -42 67 c-23 36 -44 68 -47 71 -3 3 -68
-35 -145 -85z"/>
<path d="M2959 2432 c-111 -185 -204 -340 -205 -343 -6 -11 137 -92 146 -83 4
5 44 72 90 149 117 196 112 190 106 130 -3 -27 -8 -129 -11 -225 l-6 -175 80
-47 c43 -27 81 -48 84 -48 3 0 8 66 11 148 4 81 9 184 12 229 l6 82 184 107
c102 59 187 110 189 114 3 5 -146 100 -158 100 -9 0 -353 -202 -371 -218 -10
-10 27 59 83 151 55 93 101 171 101 175 0 4 -31 26 -70 49 l-69 42 -202 -337z"/>
<path d="M6532 2466 c-35 -13 -65 -26 -68 -29 -3 -2 41 -129 96 -282 56 -153
100 -285 98 -294 -3 -17 -147 -80 -185 -81 -12 0 -27 8 -32 18 -5 10 -53 137
-106 282 -52 145 -98 266 -101 269 -7 8 -146 -42 -151 -55 -5 -13 198 -570
227 -622 28 -49 72 -75 126 -75 24 0 100 20 180 48 118 41 145 55 182 90 66
66 63 87 -62 433 -127 350 -116 322 -130 321 -6 0 -39 -11 -74 -23z"/>
<path d="M3815 2358 c-38 -33 -473 -576 -476 -593 -1 -9 123 -64 148 -65 6 0
35 29 63 65 28 36 57 65 63 65 7 0 57 -18 112 -39 l100 -39 1 -93 1 -92 76
-30 c43 -17 80 -28 82 -25 6 5 43 568 47 702 1 42 -3 85 -11 104 -18 43 -67
72 -124 72 -38 0 -53 -6 -82 -32z m39 -312 c-5 -85 -11 -126 -18 -123 -6 3
-35 13 -63 23 -29 10 -53 22 -53 26 0 11 132 209 137 205 2 -2 0 -61 -3 -131z"/>
<path d="M5885 2266 c-5 -2 -101 -21 -213 -42 -168 -31 -201 -40 -198 -53 3
-9 37 -185 77 -391 39 -206 72 -376 73 -376 4 -5 166 30 166 36 0 4 -13 74
-30 155 -16 81 -30 152 -30 157 0 4 17 -11 37 -34 21 -24 79 -88 130 -144 l93
-101 90 17 c50 9 93 19 96 22 3 3 -49 64 -115 136 -67 71 -121 133 -121 136 0
3 9 6 20 6 28 0 70 23 99 54 34 36 38 101 12 225 -21 106 -44 156 -80 178 -21
13 -89 25 -106 19z m3 -199 c7 -7 16 -37 23 -66 14 -66 7 -75 -72 -90 -79 -16
-109 -44 -110 -103 0 -30 -9 0 -29 97 -15 77 -27 141 -26 142 6 7 135 31 167
32 20 1 41 -5 47 -12z"/>
<path d="M4306 2230 c-31 -10 -72 -44 -88 -73 -20 -37 -55 -240 -48 -274 18
-79 62 -112 185 -138 46 -9 90 -24 96 -31 13 -16 4 -84 -16 -111 -13 -17 -18
-17 -152 10 -76 16 -147 31 -158 33 -18 5 -22 -4 -38 -77 -9 -45 -16 -83 -15
-84 2 -2 81 -19 177 -40 198 -42 255 -43 297 -4 37 35 53 69 74 167 25 112 25
168 0 209 -25 42 -59 59 -170 84 -57 13 -94 27 -97 36 -3 8 -2 36 3 62 8 42
12 46 39 49 17 1 91 -11 165 -27 74 -16 136 -28 138 -26 5 5 41 165 37 165 -2
0 -77 15 -167 34 -210 44 -227 46 -262 36z"/>
<path d="M5262 2183 l-53 -4 7 -153 7 -153 -39 -6 c-22 -4 -76 -7 -121 -7
l-83 0 -1 43 c-1 23 -4 92 -8 152 l-6 110 -80 -4 c-44 -2 -82 -5 -84 -7 -6 -6
28 -728 36 -768 l5 -29 81 7 c45 4 82 8 83 9 0 1 -3 69 -8 151 -4 82 -6 152
-2 155 6 6 226 20 233 14 4 -2 19 -222 20 -291 1 -23 2 -23 84 -16 45 3 83 8
85 9 2 2 -6 176 -17 387 -12 210 -21 389 -21 396 0 12 -7 12 -118 5z"/>
</g>
</svg>
